<svg width="24" height="24" viewBox="0 0 24 24" fill="none" xmlns="http://www.w3.org/2000/svg">
<g clip-path="url(#clip0_304_4206)">
<path d="M8.60039 21.5827C9.15267 21.5827 9.60039 21.135 9.60039 20.5827V15.916C9.60039 15.3637 10.0481 14.916 10.6004 14.916H13.4004C13.9527 14.916 14.4004 15.3637 14.4004 15.916V20.5827C14.4004 21.135 14.8481 21.5827 15.4004 21.5827H18.6004C19.1527 21.5827 19.6004 21.135 19.6004 20.5827V9.5357C19.6004 9.24777 19.4763 8.97381 19.2598 8.78394L12.6598 2.99447C12.2825 2.66348 11.7183 2.66348 11.341 2.99447L4.74095 8.78394C4.5245 8.97382 4.40039 9.24777 4.40039 9.5357V20.5827C4.40039 21.135 4.84811 21.5827 5.40039 21.5827H8.60039Z" fill="#20BF62" stroke="#20BF62" stroke-width="2" stroke-linecap="round" stroke-linejoin="round"/>
</g>
<defs>
<clipPath id="clip0_304_4206">
<rect width="18" height="22" fill="white" transform="translate(3 1)"/>
</clipPath>
</defs>
</svg>
