<svg width="24" height="24" viewBox="0 0 24 24" fill="none" xmlns="http://www.w3.org/2000/svg">
<g clip-path="url(#clip0_304_4210)">
<path d="M22.5 11.46C22.5 7.06 18.02 3.5 12.5 3.5C6.98 3.5 2.5 7.06 2.5 11.46C2.5 12.52 2.77 13.53 3.24 14.46H3.19C4.46 17.01 7.34 18.92 10.82 19.38V22.07L13.43 19.46C17.23 19.17 20.42 17.19 21.78 14.46H21.76C22.23 13.53 22.5 12.52 22.5 11.46Z" fill="#20BF62" stroke="#20BF62" stroke-width="2" stroke-linecap="round" stroke-linejoin="round"/>
<path d="M8.57969 12.6105C9.21482 12.6105 9.72969 12.0957 9.72969 11.4605C9.72969 10.8254 9.21482 10.3105 8.57969 10.3105C7.94456 10.3105 7.42969 10.8254 7.42969 11.4605C7.42969 12.0957 7.94456 12.6105 8.57969 12.6105Z" fill="white"/>
<path d="M12.9498 12.6105C13.5849 12.6105 14.0998 12.0957 14.0998 11.4605C14.0998 10.8254 13.5849 10.3105 12.9498 10.3105C12.3147 10.3105 11.7998 10.8254 11.7998 11.4605C11.7998 12.0957 12.3147 12.6105 12.9498 12.6105Z" fill="white"/>
<path d="M17.3199 12.6105C17.955 12.6105 18.4699 12.0957 18.4699 11.4605C18.4699 10.8254 17.955 10.3105 17.3199 10.3105C16.6848 10.3105 16.1699 10.8254 16.1699 11.4605C16.1699 12.0957 16.6848 12.6105 17.3199 12.6105Z" fill="white"/>
</g>
<defs>
<clipPath id="clip0_304_4210">
<rect width="24" height="24" fill="white"/>
</clipPath>
</defs>
</svg>
