<svg width="24" height="24" viewBox="0 0 24 24" fill="none" xmlns="http://www.w3.org/2000/svg">
<g clip-path="url(#clip0_1_1617)">
<path d="M15.9863 1.4197C16.7325 -0.113175 18.9943 -0.0618407 19.6396 1.57302L20.4902 3.7322L22.6504 4.58377C24.1222 5.16438 24.3105 7.05429 23.2158 7.97048C23.6366 8.97075 23.9033 10.044 23.9785 11.1638V11.1668C24.0913 12.841 23.7501 14.5434 23 16.033C22.1615 17.7008 20.8506 19.084 19.3262 20.1072C19.2713 20.1416 19.216 20.1792 19.1611 20.2136C15.7521 22.4198 11.3675 22.8825 7.57129 21.5369C7.55362 21.5309 7.53382 21.5316 7.5166 21.5388L3.63574 23.1697C2.85277 23.4984 2.04194 22.7631 2.29297 21.9519L3.05176 19.5047C3.16417 19.1418 3.0582 18.7491 2.79785 18.4724C2.10809 17.7402 1.50977 16.9083 1.05469 16.0105C0.374891 14.6713 2.35028e-05 13.1663 0 11.6551C0 10.7633 0.125131 9.87453 0.37207 9.02029C1.2929 5.81281 3.82059 3.34064 6.78125 2.07009C9.64576 0.83468 12.9375 0.670879 15.9189 1.57107L15.9863 1.4197Z" fill="#20BF62"/>
<path d="M7.5 11.8821C7.5 12.7105 6.82843 13.3821 6 13.3821C5.17157 13.3821 4.5 12.7105 4.5 11.8821C4.5 11.0536 5.17157 10.3821 6 10.3821C6.82843 10.3821 7.5 11.0536 7.5 11.8821Z" fill="white"/>
<path d="M13.5 11.8821C13.5 12.7105 12.8284 13.3821 12 13.3821C11.1716 13.3821 10.5 12.7105 10.5 11.8821C10.5 11.0536 11.1716 10.3821 12 10.3821C12.8284 10.3821 13.5 11.0536 13.5 11.8821Z" fill="white"/>
<path d="M17.3146 2.12368C17.4811 1.70161 18.0784 1.70161 18.2449 2.12368L19.2557 4.68668C19.3066 4.81554 19.4086 4.91754 19.5374 4.96836L22.1004 5.97919C22.5225 6.14566 22.5225 6.74299 22.1004 6.90946L19.5374 7.92029C19.4086 7.97111 19.3066 8.07311 19.2557 8.20197L18.2449 10.765C18.0784 11.187 17.4811 11.187 17.3146 10.765L16.3038 8.20197C16.253 8.07311 16.151 7.97111 16.0221 7.92029L13.4591 6.90946C13.0371 6.74299 13.0371 6.14566 13.4591 5.97919L16.0221 4.96836C16.151 4.91754 16.253 4.81554 16.3038 4.68668L17.3146 2.12368Z" fill="white"/>
</g>
<defs>
<clipPath id="clip0_1_1617">
<rect width="24" height="24" fill="white"/>
</clipPath>
</defs>
</svg>
