<svg width="24" height="24" viewBox="0 0 24 24" fill="none" xmlns="http://www.w3.org/2000/svg">
<g clip-path="url(#clip0_1_1654)">
<path d="M15.2656 20.5176C15.238 21.0756 15.2739 22.1444 15.1689 22.6855C15.0418 23.3455 14.5689 23.7567 13.917 23.9473C13.859 23.9638 13.7982 23.9834 13.7402 24H10.2656C9.98109 23.8619 9.66578 23.7622 9.41992 23.5771C8.98646 23.2458 8.81802 22.749 8.7793 22.2217C8.75168 21.8269 8.77342 20.9293 8.77344 20.5176H15.2656ZM4.17676 18.6768C4.46965 18.3839 4.94441 18.3839 5.2373 18.6768C5.53019 18.9697 5.5302 19.4444 5.2373 19.7373L4.53027 20.4443C4.23738 20.7372 3.76262 20.7372 3.46973 20.4443C3.17683 20.1514 3.17683 19.6767 3.46973 19.3838L4.17676 18.6768ZM18.7627 18.6768C19.0556 18.3839 19.5303 18.3839 19.8232 18.6768L20.5303 19.3838C20.8232 19.6767 20.8232 20.1514 20.5303 20.4443C20.2374 20.7372 19.7626 20.7372 19.4697 20.4443L18.7627 19.7373C18.4698 19.4444 18.4698 18.9697 18.7627 18.6768ZM10.6523 4.61035C14.6363 3.94715 18.3806 6.27941 19.2764 10.0898C19.9502 12.9542 19.0551 15.3897 16.7646 17.3193C16.1351 17.8482 15.5822 18.4123 15.3398 19.207C15.3104 19.2983 15.2863 19.3925 15.2568 19.498L15.2539 19.4932H8.72559C8.71081 19.4388 8.69349 19.3863 8.67871 19.332C8.48951 18.5632 8.06904 17.9488 7.42188 17.4629C5.94716 16.3509 5.02774 14.9042 4.64648 13.1318C3.80428 9.21838 6.57094 5.28804 10.6523 4.61035ZM2 11.25C2.41421 11.25 2.75 11.5858 2.75 12C2.75 12.4142 2.41421 12.75 2 12.75H1C0.585786 12.75 0.25 12.4142 0.25 12C0.25 11.5858 0.585786 11.25 1 11.25H2ZM23 11.25C23.4142 11.25 23.75 11.5858 23.75 12C23.75 12.4142 23.4142 12.75 23 12.75H22C21.5858 12.75 21.25 12.4142 21.25 12C21.25 11.5858 21.5858 11.25 22 11.25H23ZM3.55566 3.55566C3.84856 3.26278 4.32332 3.26277 4.61621 3.55566L5.32324 4.2627C5.61606 4.55559 5.61611 5.03037 5.32324 5.32324C5.03037 5.61611 4.55559 5.61606 4.2627 5.32324L3.55566 4.61621C3.26277 4.32332 3.26277 3.84856 3.55566 3.55566ZM19.3838 3.55566C19.6767 3.26277 20.1514 3.26278 20.4443 3.55566C20.7372 3.84856 20.7372 4.32332 20.4443 4.61621L19.7373 5.32324C19.4444 5.61606 18.9696 5.61611 18.6768 5.32324C18.3839 5.03037 18.3839 4.55559 18.6768 4.2627L19.3838 3.55566ZM12 0.25C12.4142 0.25 12.75 0.585786 12.75 1V2C12.75 2.41421 12.4142 2.75 12 2.75C11.5858 2.75 11.25 2.41421 11.25 2V1C11.25 0.585786 11.5858 0.25 12 0.25Z" fill="#20BF62"/>
<path d="M12.4955 7.49811C14.7046 7.49811 16.4955 9.28897 16.4955 11.4981" stroke="white" stroke-width="1.5" stroke-linecap="round"/>
</g>
<defs>
<clipPath id="clip0_1_1654">
<rect width="24" height="24" fill="white"/>
</clipPath>
</defs>
</svg>
