<svg width="24" height="24" viewBox="0 0 24 24" fill="none" xmlns="http://www.w3.org/2000/svg">
<g clip-path="url(#clip0_2500_9440)">
<path d="M12.5503 8.63086C11.5703 8.63086 10.7803 9.36086 10.7803 10.2609C10.7803 11.1609 11.5703 11.8909 12.5503 11.8909C13.5303 11.8909 14.3203 11.1609 14.3203 10.2609C14.3203 9.36086 13.5303 8.63086 12.5503 8.63086ZM12.5503 10.9209C12.1903 10.9209 11.8903 10.6209 11.8903 10.2609C11.8903 9.90086 12.1803 9.60086 12.5503 9.60086C12.9203 9.60086 13.2103 9.90086 13.2103 10.2609C13.2103 10.6209 12.9103 10.9209 12.5503 10.9209Z" fill="#333333"/>
<path d="M6.76043 8.60008C6.76043 8.60008 6.03043 8.60008 5.77043 9.03008V7.33008C5.77043 7.33008 4.76043 7.34008 4.69043 7.33008V11.7701H5.77043V11.5101C5.77043 11.5101 6.10043 11.8901 6.67043 11.8901C6.67043 11.8901 8.15043 11.8501 8.15043 10.4201C8.15043 10.4201 8.35043 8.74008 6.76043 8.60008ZM6.43043 10.9001C6.09043 10.9001 5.81043 10.6201 5.81043 10.2801C5.81043 9.94008 6.09043 9.66008 6.43043 9.66008C6.77043 9.66008 7.05043 9.94008 7.05043 10.2801C7.05043 10.6201 6.77043 10.9001 6.43043 10.9001Z" fill="#333333"/>
<path d="M17.2699 9.00925C16.9199 8.54925 16.3499 8.59925 16.3499 8.59925C14.9099 8.69925 14.8799 10.0293 14.8799 10.0293V10.5093C14.8799 11.7893 16.1999 11.8793 16.1999 11.8793C17.1299 11.8793 17.2599 11.4593 17.2599 11.4593C17.2699 12.4693 16.6099 12.4193 16.6099 12.4193H16.3199V13.4193H16.7899C18.3499 13.4193 18.3399 11.8793 18.3399 11.8793H18.3499V8.66925H17.2799V8.99925L17.2699 9.00925ZM16.6499 10.9093C16.2899 10.9093 15.9999 10.6193 15.9999 10.2593C15.9999 9.89925 16.2899 9.60925 16.6499 9.60925C17.0099 9.60925 17.2999 9.89925 17.2999 10.2593C17.2999 10.6193 17.0099 10.9093 16.6499 10.9093Z" fill="#333333"/>
<path d="M18.09 3.5H4.91C3.58 3.5 2.5 4.58 2.5 5.91V13.74C2.5 15.07 3.58 16.15 4.91 16.15H9.57L11.16 19.89C11.16 19.89 11.27 20.22 11.53 20.22C11.79 20.22 11.9 19.89 11.9 19.89L13.49 16.15H18.1C19.43 16.15 20.51 15.07 20.51 13.74V5.91C20.51 4.58 19.43 3.5 18.1 3.5H18.09Z" stroke="#333333" stroke-miterlimit="10"/>
<path d="M10.0505 8.71992V11.7699H8.99047V8.75992C8.99047 8.34992 8.48047 8.22992 8.48047 8.22992V7.16992C10.1705 7.23992 10.0405 8.71992 10.0405 8.71992H10.0505Z" fill="#333333"/>
</g>
<defs>
<clipPath id="clip0_2500_9440">
<rect width="19" height="17.71" fill="white" transform="translate(2 3)"/>
</clipPath>
</defs>
</svg>
