<svg width="16" height="17" viewBox="0 0 16 17" fill="none" xmlns="http://www.w3.org/2000/svg">
<path d="M14.7077 5.58547L10.9146 1.79297C10.8217 1.70009 10.7115 1.62641 10.5902 1.57614C10.4688 1.52587 10.3388 1.5 10.2074 1.5C10.0761 1.5 9.94602 1.52587 9.82468 1.57614C9.70334 1.62641 9.59309 1.70009 9.50023 1.79297L6.14836 5.15547C5.48211 4.94672 3.96086 4.69485 2.37336 5.97672C2.26393 6.06471 2.17427 6.17475 2.11019 6.29969C2.04612 6.42463 2.00907 6.56166 2.00147 6.70186C1.99386 6.84207 2.01587 6.9823 2.06605 7.11343C2.11623 7.24457 2.19347 7.36367 2.29273 7.46297L5.31273 10.4817L2.64648 13.1461C2.55266 13.2399 2.49995 13.3672 2.49995 13.4998C2.49995 13.6325 2.55266 13.7598 2.64648 13.8536C2.7403 13.9474 2.86755 14.0001 3.00023 14.0001C3.13291 14.0001 3.26016 13.9474 3.35398 13.8536L6.01836 11.1873L9.03648 14.2055C9.12926 14.2986 9.23951 14.3726 9.36092 14.4231C9.48232 14.4736 9.61249 14.4997 9.74398 14.4998C9.76773 14.4998 9.79086 14.4998 9.81461 14.4998C9.95716 14.49 10.0959 14.4495 10.2214 14.3813C10.347 14.313 10.4563 14.2185 10.5421 14.1042C11.7696 12.473 11.6515 11.1467 11.3665 10.3542L14.7084 6.99985C14.8012 6.90695 14.8748 6.79666 14.925 6.6753C14.9753 6.55394 15.0011 6.42387 15.001 6.29253C15.001 6.16119 14.975 6.03115 14.9247 5.90983C14.8744 5.78851 14.8007 5.67829 14.7077 5.58547ZM14.0002 6.29297L10.4209 9.88422C10.3469 9.95842 10.2982 10.054 10.2815 10.1573C10.2648 10.2607 10.2809 10.3668 10.3277 10.4605C10.919 11.6436 10.2152 12.8723 9.74398 13.4992L3.00023 6.75485C3.75523 6.1461 4.47773 5.98547 5.03023 5.98547C5.38081 5.98069 5.7285 6.04946 6.05086 6.18735C6.1449 6.23442 6.25139 6.25063 6.35519 6.23369C6.45898 6.21674 6.55479 6.1675 6.62898 6.09297L10.2077 2.49985L14.0002 6.29235V6.29297Z" fill="#C7C7C7"/>
</svg>
