<svg width="24" height="24" viewBox="0 0 24 24" fill="none" xmlns="http://www.w3.org/2000/svg">
<g clip-path="url(#clip0_2285_22897)">
<path d="M8.60039 21.5832C9.15267 21.5832 9.60039 21.1355 9.60039 20.5832V15.9165C9.60039 15.3642 10.0481 14.9165 10.6004 14.9165H13.4004C13.9527 14.9165 14.4004 15.3642 14.4004 15.9165V20.5832C14.4004 21.1355 14.8481 21.5832 15.4004 21.5832H18.6004C19.1527 21.5832 19.6004 21.1355 19.6004 20.5832V9.53619C19.6004 9.24826 19.4763 8.9743 19.2598 8.78443L12.6598 2.99496C12.2825 2.66397 11.7183 2.66397 11.341 2.99496L4.74095 8.78443C4.5245 8.9743 4.40039 9.24826 4.40039 9.53619V20.5832C4.40039 21.1355 4.84811 21.5832 5.40039 21.5832H8.60039Z" stroke="#BEBEBE" stroke-width="2" stroke-linecap="round" stroke-linejoin="round"/>
</g>
<defs>
<clipPath id="clip0_2285_22897">
<rect width="18" height="22" fill="white" transform="translate(3 1)"/>
</clipPath>
</defs>
</svg>
