<svg width="41" height="40" viewBox="0 0 41 40" fill="none" xmlns="http://www.w3.org/2000/svg">
<circle cx="20.5" cy="20" r="20" fill="#FEE500"/>
<path d="M20.5569 9.65234C14.3345 9.65234 9.31641 13.6668 9.31641 18.5403C9.31641 21.7037 11.4039 24.4737 14.5352 26.0554L13.4754 30.0137C13.4554 30.073 13.4523 30.1367 13.4665 30.1977C13.4807 30.2586 13.5116 30.3145 13.5557 30.3589C13.62 30.4156 13.7028 30.447 13.7885 30.4472C13.8596 30.4415 13.9271 30.4134 13.9812 30.3669L18.5416 27.2919C19.2148 27.3848 19.8934 27.433 20.573 27.4363C26.7873 27.4363 31.8135 23.4219 31.8135 18.5403C31.8135 13.6587 26.7713 9.65234 20.5569 9.65234Z" fill="#392020"/>
<path d="M13.2511 17.1347H12.0226C11.8704 17.1392 11.72 17.1002 11.5891 17.0223C11.5309 16.9859 11.481 16.9378 11.4423 16.8812C11.4036 16.8245 11.377 16.7605 11.3643 16.6931C11.3604 16.6504 11.3604 16.6075 11.3643 16.5647C11.3604 16.4848 11.376 16.405 11.4095 16.3323C11.443 16.2597 11.4936 16.1962 11.5569 16.1472C11.6969 16.0458 11.8659 15.9923 12.0387 15.9946H15.74C15.8935 15.9892 16.0449 16.0313 16.1736 16.1151C16.2331 16.1499 16.2841 16.1975 16.323 16.2544C16.3619 16.3114 16.3876 16.3762 16.3984 16.4443C16.4023 16.4843 16.4023 16.5247 16.3984 16.5647C16.4022 16.6458 16.3867 16.7267 16.3532 16.8006C16.3197 16.8746 16.2692 16.9395 16.2057 16.9902C16.0691 17.0914 15.9018 17.1425 15.732 17.1347H14.5437V21.358C14.5485 21.4479 14.5346 21.5379 14.5028 21.6222C14.471 21.7065 14.4221 21.7833 14.359 21.8477C14.2986 21.9093 14.2259 21.9575 14.1457 21.9893C14.0655 22.0211 13.9796 22.0358 13.8934 22.0324C13.7426 22.0367 13.595 21.9885 13.4759 21.8959C13.3624 21.8055 13.2855 21.6772 13.2591 21.5346C13.2511 21.476 13.2511 21.4166 13.2591 21.358L13.2511 17.1347Z" fill="#FEE500"/>
<path d="M16.752 16.3089C16.7873 16.1768 16.8702 16.0624 16.9848 15.9877C17.1069 15.9185 17.246 15.8851 17.3863 15.8914H17.6913C17.8401 15.886 17.9875 15.9222 18.1169 15.9957C18.254 16.088 18.3515 16.2284 18.3899 16.3892L19.9957 20.9255C20.0373 21.0439 20.0721 21.1646 20.1 21.2869C20.1028 21.3377 20.1028 21.3886 20.1 21.4394C20.1027 21.5176 20.0883 21.5955 20.0578 21.6676C20.0273 21.7398 19.9814 21.8044 19.9234 21.8569C19.8671 21.9146 19.7996 21.96 19.725 21.9904C19.6504 22.0208 19.5704 22.0354 19.4898 22.0335C19.366 22.0458 19.2416 22.0161 19.1367 21.9491C19.0319 21.8821 18.9526 21.7818 18.9117 21.6642L18.5745 20.6767H16.4629L16.1257 21.6642C16.0858 21.7841 16.0056 21.8864 15.8987 21.9537C15.7919 22.0211 15.6649 22.0493 15.5396 22.0335C15.4038 22.0371 15.2708 21.9946 15.1622 21.9131C15.0564 21.8289 14.985 21.709 14.9615 21.5759C14.9573 21.5305 14.9573 21.4848 14.9615 21.4394C14.9477 21.3597 14.9477 21.2783 14.9615 21.1986C14.9615 21.1103 15.0177 21.0138 15.0498 20.9255L16.752 16.3089ZM17.5549 17.3607L16.7921 19.7694H18.3096L17.5549 17.3607Z" fill="#FEE500"/>
<path d="M20.2839 16.5658C20.2757 16.3856 20.3392 16.2095 20.4605 16.076C20.5222 16.0139 20.5962 15.9652 20.6778 15.9334C20.7594 15.9016 20.8468 15.8872 20.9342 15.8913C21.0846 15.8895 21.2314 15.9376 21.3517 16.0278C21.4633 16.122 21.5373 16.253 21.5605 16.3971C21.5684 16.453 21.5684 16.5099 21.5605 16.5658V20.789H23.7685C23.9215 20.787 24.0719 20.8287 24.202 20.9094C24.2605 20.9454 24.3107 20.9934 24.3494 21.0501C24.3882 21.1068 24.4145 21.171 24.4268 21.2386C24.4268 21.2386 24.4268 21.3189 24.4268 21.359C24.4306 21.439 24.4151 21.5186 24.3816 21.5913C24.348 21.664 24.2975 21.7276 24.2341 21.7766C24.0942 21.8779 23.9252 21.9314 23.7524 21.9291H21.0386C20.8658 21.9402 20.694 21.8952 20.5489 21.8007C20.419 21.7036 20.3325 21.5594 20.308 21.3992C20.3021 21.311 20.3021 21.2224 20.308 21.1342L20.2839 16.5658Z" fill="#FEE500"/>
<path d="M24.5717 16.5652C24.5669 16.3856 24.63 16.2107 24.7483 16.0755C24.8687 15.9661 25.023 15.9016 25.1854 15.8928C25.3477 15.884 25.5081 15.9315 25.6395 16.0273C25.7535 16.1206 25.8304 16.2515 25.8563 16.3965C25.8603 16.4527 25.8603 16.5091 25.8563 16.5652V18.5323L27.8876 16.1878C27.9659 16.1078 28.049 16.0328 28.1365 15.9631C28.219 15.9139 28.3136 15.8888 28.4095 15.8907C28.5499 15.89 28.6871 15.932 28.8029 16.0112C28.8575 16.0479 28.9042 16.0954 28.94 16.1505C28.9759 16.2057 29.0003 16.2675 29.0117 16.3324C29.0149 16.3482 29.0149 16.3647 29.0117 16.3806C29.0078 16.3991 29.0078 16.4182 29.0117 16.4367C29.0114 16.5212 28.9893 16.6042 28.9475 16.6776C28.9049 16.7554 28.8537 16.828 28.7949 16.8943L27.4621 18.3557L29.0679 20.8446V20.9249C29.1513 21.0399 29.2163 21.1673 29.2606 21.3023V21.3424C29.2699 21.4354 29.2565 21.5293 29.2215 21.616C29.1866 21.7027 29.1311 21.7796 29.0599 21.8402C28.9259 21.9414 28.7621 21.9951 28.5942 21.9928C28.4826 21.9974 28.3719 21.9724 28.273 21.9205C28.1661 21.8487 28.078 21.7524 28.0161 21.6395L26.5227 19.2308L25.8082 19.9775V21.3183C25.813 21.4979 25.7499 21.6728 25.6315 21.808C25.5681 21.8701 25.4926 21.9185 25.4097 21.9503C25.3269 21.982 25.2384 21.9965 25.1498 21.9928C25.0016 21.9959 24.857 21.9476 24.7403 21.8563C24.6269 21.7659 24.5499 21.6376 24.5235 21.495C24.5156 21.4364 24.5156 21.3769 24.5235 21.3183L24.5717 16.5652Z" fill="#FEE500"/>
</svg>
