<svg width="580" height="302" viewBox="0 0 580 302" fill="none" xmlns="http://www.w3.org/2000/svg">
<g clip-path="url(#clip0_3579_52988)">
<path d="M258.508 138.55C263.038 138.55 265.798 135.04 265.798 131.28C265.798 127.26 263.038 124 258.508 124C254.748 124 251.478 127.26 251.478 131.28C251.478 135.04 254.748 138.55 258.508 138.55ZM227.398 301.95V268.32L266.048 240.96V233.43H227.398V211.59H290.148V252.75L251.498 280.11H290.148V301.95H227.398ZM212.578 200.3V178.21H246.718V156.88C236.678 152.61 229.648 142.82 229.648 131.28C229.648 114.71 242.948 102.16 258.508 102.16C274.068 102.16 287.628 114.71 287.628 131.28C287.628 142.82 280.598 152.61 270.558 156.88V178.21H303.438V200.3H212.578Z" fill="#999899"/>
<path d="M399.33 200.3V106.42H423.42V142.57H446.26V164.66H423.42V200.3H399.33ZM338.33 178.71H352.89V164.65H338.33V178.71ZM315.49 200.3V123.24H338.33V142.57H352.89V123.24H375.72V200.3H315.48H315.49Z" fill="#999899"/>
<path d="M579.058 177.811H555.398V200.301H579.058V177.811Z" fill="#999899"/>
<path d="M452.281 200.3V178.21H486.421V159.38H469.101V125.69L502.981 101.34V96.0805H469.101V74.2305H527.081V113.14L493.201 137.49V137.55H527.081V159.38H510.261V178.21H543.151V200.3H452.281Z" fill="#999899"/>
<path d="M527.081 137.55V159.38H510.261V178.21H543.151V200.3H452.281V178.21H486.421V159.38H469.101L493.201 137.49L527.081 137.55Z" fill="#999899"/>
<path d="M82.5011 49.9601H67.4911V38.7101H82.5011V33.0801H61.8711V55.5901H82.5011V49.9601Z" fill="#999899"/>
<path d="M86.7208 84.4795H85.3108C82.2008 84.4795 79.6808 81.9594 79.6808 78.8494C79.6808 75.7394 82.2008 73.2195 85.3108 73.2195H86.7208C89.8308 73.2195 92.3508 75.7394 92.3508 78.8494C92.3508 81.9594 89.8308 84.4795 86.7208 84.4795ZM97.9808 31.9495H92.3508V69.0795C90.7008 68.1295 88.7908 67.5894 86.7508 67.5894H85.3108C79.0908 67.5894 74.0508 72.6294 74.0508 78.8494C74.0508 85.0695 79.0908 90.1095 85.3108 90.1095H86.7508C92.9708 90.1095 98.0108 85.0695 98.0108 78.8494C98.0108 78.5494 98.0008 78.2595 97.9808 77.9695V47.0495H105.491V41.4195H97.9808V31.9395V31.9495Z" fill="#999899"/>
<path d="M204.931 76.0392V31.9492H199.301V61.9692H165.531V67.5992H199.301V76.0392H204.931Z" fill="#999899"/>
<path d="M181.01 38.7092H182.42C185.53 38.7092 188.05 41.2292 188.05 44.3392C188.05 47.4492 185.53 49.9692 182.42 49.9692H181.01C177.9 49.9692 175.38 47.4492 175.38 44.3392C175.38 41.2292 177.9 38.7092 181.01 38.7092ZM181.01 55.5892H182.42C188.64 55.5892 193.68 50.5492 193.68 44.3292C193.68 38.8392 189.74 34.2592 184.53 33.2692V31.9492H178.9V33.2692C173.69 34.2592 169.75 38.8292 169.75 44.3292C169.75 50.5492 174.79 55.5892 181.01 55.5892Z" fill="#999899"/>
<path d="M132.821 67.5996H127.191V90.1096H154.361V84.4796H132.821V67.5996Z" fill="#999899"/>
<path d="M152.95 31.9492H147.32V67.5992H152.95V31.9492Z" fill="#999899"/>
<path d="M135.57 55.5901L140.45 52.7801L129.07 33.0801H125.3L113.93 52.7801L118.8 55.5901L127.19 41.0701L135.57 55.5901Z" fill="#999899"/>
<path d="M246.21 49.9592H235.89V44.3292H246.21V49.9592ZM260.28 84.4792H248.65V78.8492H260.28V84.4792ZM251.83 47.1492H260.27V73.2292H248.64V67.5992H243.01V90.1092H265.9V31.9492H260.27V41.5192H251.83V33.0792H246.2V38.7092H235.88V33.0792H230.25V55.5892H251.83V47.1492Z" fill="#999899"/>
<path d="M297.569 64.4091H303.749V67.5991H297.569V64.4091ZM291.869 67.5991H288.959V73.2291H306.779V76.0491H288.959V90.1191H312.409V84.4891H294.589V81.6791H312.409V67.6091H309.549V64.4191H321.319V58.7891H280.039V64.4191H291.869V67.6091V67.5991Z" fill="#999899"/>
<path d="M312.409 49.9601H294.579V47.1501H312.409V33.0801H288.949V38.7101H306.779V41.5201H288.949V55.5901H312.409V49.9601Z" fill="#999899"/>
<path d="M350.35 73.2293H355.98V64.4093H373.85V58.7793H332.57V64.4093H350.35V73.2293Z" fill="#999899"/>
<path d="M359.78 49.9601H346.65V38.7001H359.78V49.9601ZM365.41 33.0801H341.02V55.5901H365.41V33.0801Z" fill="#999899"/>
<path d="M365.41 84.4796H346.65V67.5996H341.02V90.1096H365.41V84.4796Z" fill="#999899"/>
<path d="M407.969 76.0392H413.599V31.9492H407.969V41.5192H404.219V47.1492H407.969V76.0392Z" fill="#999899"/>
<path d="M423.552 31.9492H417.922V76.0392H423.552V31.9492Z" fill="#999899"/>
<path d="M382.352 55.6101L387.642 57.5401L392.212 44.9801L396.782 57.5401L402.062 55.6101L395.912 38.7101H402.992V33.0801H381.422V38.7101H388.502L382.352 55.6101Z" fill="#999899"/>
<path d="M58.5483 89.9492H54.7383" stroke="#6E6E6E" stroke-dasharray="2.88 1.88"/>
<path d="M52.3711 92.9004V100.62" stroke="#6E6E6E" stroke-dasharray="2.63 1.63"/>
<path d="M55.6797 102.75H59.4897" stroke="#6E6E6E" stroke-dasharray="2.88 1.88"/>
<path d="M60.4294 102.749H61.8694M52.3694 101.429V102.749H53.8094M53.7994 89.9492H52.3594V91.2692M61.8694 89.9492H60.4294" stroke="#6E6E6E"/>
<path d="M0 96.4103C0 92.1103 2.12 89.0703 5.14 89.0703C8.16 89.0703 10.26 92.1103 10.26 96.4103C10.26 100.71 8.14 103.77 5.14 103.77C2.14 103.77 0 100.73 0 96.4103ZM8.82 96.4103C8.82 92.8503 7.3 90.3503 5.14 90.3503C2.98 90.3503 1.44 92.8503 1.44 96.4103C1.44 99.9703 2.96 102.49 5.14 102.49C7.32 102.49 8.82 99.9703 8.82 96.4103Z" fill="#999899"/>
<path d="M14.6016 102.871C14.6016 103.471 14.2016 103.891 13.6216 103.891C13.0416 103.891 12.6016 103.471 12.6016 102.871C12.6016 102.271 13.0216 101.891 13.6216 101.891C14.2216 101.891 14.6016 102.291 14.6016 102.871Z" fill="#999899"/>
<path d="M18.4417 96.5699L18.9017 89.1699H26.1017V90.4499H20.2817L20.0017 94.9299C20.7417 94.5099 21.6017 94.2499 22.3817 94.2499C25.2417 94.2499 27.2617 96.2099 27.2617 98.9899C27.2617 101.77 25.2417 103.83 22.3817 103.83C20.1617 103.83 18.2617 102.33 17.7617 100.21L19.1617 99.8899C19.5017 101.41 20.8217 102.47 22.3817 102.47C24.4017 102.47 25.8217 101.03 25.8217 98.9899C25.8217 96.9499 24.4017 95.6099 22.3817 95.6099C21.5217 95.6099 20.4817 96.1099 19.8817 96.8099L18.4417 96.5699Z" fill="#999899"/>
<path d="M42.5608 103.629H41.0208L39.4408 99.4695H32.9608L31.3408 103.629H29.8008L35.3808 89.1895H37.0608L42.5608 103.629ZM38.9408 98.1895L36.2208 91.0294L33.4408 98.1895H38.9408Z" fill="#999899"/>
<path d="M423.551 28.6401V24.8301" stroke="#6E6E6E" stroke-dasharray="2.88 1.88"/>
<path d="M420.231 22.4492H402.121" stroke="#6E6E6E" stroke-dasharray="2.88 1.88"/>
<path d="M399.738 25.7598V29.5798" stroke="#6E6E6E" stroke-dasharray="2.88 1.88"/>
<path d="M399.738 30.5092V31.9492M401.178 22.4492H399.738V23.8892M423.548 23.8892V22.4492H422.108M423.548 31.9492V30.5092" stroke="#6E6E6E"/>
<path d="M316.238 28.6401V24.8301" stroke="#6E6E6E" stroke-dasharray="2.88 1.88"/>
<path d="M313.29 22.4492H305.57" stroke="#6E6E6E" stroke-dasharray="2.63 1.63"/>
<path d="M303.441 25.7598V29.5798" stroke="#6E6E6E" stroke-dasharray="2.88 1.88"/>
<path d="M303.44 30.5092V31.9492M304.75 22.4492H303.43V23.8892M316.24 23.8892V22.4492H314.92M316.24 31.9492V30.5092" stroke="#6E6E6E"/>
<path d="M452.949 28.6401V24.8301" stroke="#6E6E6E" stroke-dasharray="2.88 1.88"/>
<path d="M445.949 25.7598V29.5798" stroke="#6E6E6E" stroke-dasharray="2.88 1.88"/>
<path d="M445.949 30.5092V31.9492M447.949 22.4492H445.949V23.8892M452.949 23.8892V22.4492H450.949M452.949 31.9492V30.5092" stroke="#6E6E6E"/>
<path d="M406.782 10.9604H405.702V1.38039L404.022 2.55039L403.422 1.73039L405.702 0.150391H406.782V10.9604Z" fill="#999899"/>
<path d="M418.922 10.9609H417.772L416.582 7.84086H411.722L410.512 10.9609H409.352L413.532 0.130859H414.792L418.912 10.9609H418.922ZM416.212 6.88086L414.172 1.51086L412.082 6.88086H416.202H416.212Z" fill="#999899"/>
<path d="M293.449 5.55078C293.449 2.33078 295.039 0.0507812 297.299 0.0507812C299.559 0.0507812 301.139 2.33078 301.139 5.55078C301.139 8.77078 299.549 11.0708 297.299 11.0708C295.049 11.0708 293.449 8.79078 293.449 5.55078ZM300.059 5.55078C300.059 2.88078 298.919 1.01078 297.299 1.01078C295.679 1.01078 294.529 2.89078 294.529 5.55078C294.529 8.21078 295.669 10.1108 297.299 10.1108C298.929 10.1108 300.059 8.22078 300.059 5.55078Z" fill="#999899"/>
<path d="M304.398 10.3902C304.398 10.8402 304.098 11.1602 303.658 11.1602C303.218 11.1602 302.898 10.8402 302.898 10.3902C302.898 9.94016 303.208 9.66016 303.658 9.66016C304.108 9.66016 304.398 9.96016 304.398 10.3902Z" fill="#999899"/>
<path d="M307.279 5.67109L307.629 0.121094H313.029V1.08109H308.669L308.459 4.44109C309.009 4.12109 309.659 3.93109 310.249 3.93109C312.389 3.93109 313.909 5.40109 313.909 7.49109C313.909 9.58109 312.389 11.1211 310.249 11.1211C308.579 11.1211 307.159 10.0011 306.789 8.41109L307.839 8.17109C308.089 9.31109 309.079 10.1011 310.249 10.1011C311.769 10.1011 312.829 9.02109 312.829 7.49109C312.829 5.96109 311.769 4.95109 310.249 4.95109C309.609 4.95109 308.829 5.33109 308.369 5.85109L307.289 5.67109H307.279Z" fill="#999899"/>
<path d="M325.371 10.9609H324.221L323.031 7.84086H318.171L316.961 10.9609H315.801L319.981 0.130859H321.241L325.361 10.9609H325.371ZM322.651 6.88086L320.611 1.51086L318.521 6.88086H322.641H322.651Z" fill="#999899"/>
<path d="M428.871 5.55078C428.871 2.33078 430.461 0.0507812 432.721 0.0507812C434.981 0.0507812 436.561 2.33078 436.561 5.55078C436.561 8.77078 434.971 11.0708 432.721 11.0708C430.471 11.0708 428.871 8.79078 428.871 5.55078ZM435.491 5.55078C435.491 2.88078 434.351 1.01078 432.731 1.01078C431.111 1.01078 429.961 2.89078 429.961 5.55078C429.961 8.21078 431.101 10.1108 432.731 10.1108C434.361 10.1108 435.491 8.22078 435.491 5.55078Z" fill="#999899"/>
<path d="M439.82 10.3902C439.82 10.8402 439.52 11.1602 439.08 11.1602C438.64 11.1602 438.32 10.8402 438.32 10.3902C438.32 9.94016 438.63 9.66016 439.08 9.66016C439.53 9.66016 439.82 9.96016 439.82 10.3902Z" fill="#999899"/>
<path d="M447.639 3.34C447.639 1.95 446.759 0.96 445.479 0.96C444.559 0.96 443.619 1.65 443.189 2.64L442.199 2.22C442.769 0.92 444.139 0 445.489 0C447.389 0 448.729 1.38 448.729 3.34C448.729 5.62 445.819 8.07 443.719 10.01H448.909V10.97H442.399L442.249 10.01C444.389 7.93 447.649 5.3 447.649 3.34H447.639Z" fill="#999899"/>
<path d="M451.071 5.66914L451.411 0.119141H456.811V1.07914H452.441L452.231 4.43914C452.781 4.11914 453.431 3.92914 454.011 3.92914C456.161 3.92914 457.671 5.39914 457.671 7.48914C457.671 9.57914 456.161 11.1191 454.011 11.1191C452.341 11.1191 450.921 9.99914 450.551 8.40914L451.601 8.16914C451.861 9.30914 452.851 10.0991 454.021 10.0991C455.531 10.0991 456.601 9.01914 456.601 7.48914C456.601 5.95914 455.531 4.94914 454.021 4.94914C453.371 4.94914 452.601 5.32914 452.141 5.84914L451.061 5.66914H451.071Z" fill="#999899"/>
<path d="M469.16 10.9609H468L466.82 7.84086H461.96L460.74 10.9609H459.59L463.78 0.130859H465.04L469.16 10.9609ZM466.45 6.88086L464.41 1.51086L462.33 6.88086H466.45Z" fill="#999899"/>
<path d="M62.3711 35.9395V298.959" stroke="#6E6E6E" stroke-dasharray="2.99 1.99"/>
<path d="M65.8711 301.449H576.051" stroke="#6E6E6E" stroke-dasharray="3.01 2.01"/>
<path d="M578.551 297.959V34.9395" stroke="#6E6E6E" stroke-dasharray="2.99 1.99"/>
<path d="M575.051 32.4492H64.8711" stroke="#6E6E6E" stroke-dasharray="3.01 2.01"/>
<path d="M63.8711 32.4492H62.3711V33.9392M578.551 33.9492V32.4592H577.051M577.051 301.449H578.551V299.949M62.3711 299.959V301.459H63.8711" stroke="#6E6E6E"/>
<path d="M303.441 31.9492V301.949" stroke="#6E6E6E" stroke-dasharray="3.02 2.02"/>
<path d="M579.051 89.9492H61.8711" stroke="#6E6E6E" stroke-dasharray="3 2"/>
<path d="M445.949 31.9492V301.949" stroke="#6E6E6E" stroke-dasharray="3.02 2.02"/>
<path d="M316.238 31.9492V301.949" stroke="#6E6E6E" stroke-dasharray="3.02 2.02"/>
<path d="M579.051 102.75H61.8711" stroke="#6E6E6E" stroke-dasharray="3 2"/>
<path d="M423.551 31.9492V301.949" stroke="#6E6E6E" stroke-dasharray="3.02 2.02"/>
<path d="M399.738 31.9492V301.949" stroke="#6E6E6E" stroke-dasharray="3.02 2.02"/>
<path d="M452.949 31.9492V301.949" stroke="#6E6E6E" stroke-dasharray="3.02 2.02"/>
</g>
<defs>
<clipPath id="clip0_3579_52988">
<rect width="579.05" height="301.95" fill="white"/>
</clipPath>
</defs>
</svg>
