<svg width="24" height="24" viewBox="0 0 24 24" fill="none" xmlns="http://www.w3.org/2000/svg">
<g clip-path="url(#clip0_426_4596)">
<path d="M5.23516 10.584C4.78516 10.584 4.41016 10.959 4.41016 11.409C4.41016 11.859 4.78516 12.234 5.23516 12.234C5.68516 12.234 6.06016 11.859 6.06016 11.409C6.06016 10.959 5.68516 10.584 5.23516 10.584Z" fill="#20BF62"/>
<path d="M13.3948 10.4922C12.8998 10.4922 12.5098 10.8972 12.5098 11.3772C12.5098 11.8572 12.9148 12.2622 13.3948 12.2622C13.8748 12.2622 14.2798 11.8572 14.2798 11.3772C14.2798 10.8972 13.8748 10.4922 13.3948 10.4922Z" fill="#20BF62"/>
<path d="M20.79 2.36328H3.21C1.44 2.36328 0 3.80328 0 5.57328V16.0133C0 17.7833 1.44 19.2233 3.21 19.2233H9.42L11.535 24.2033C11.535 24.2033 11.685 24.6383 12.03 24.6383C12.375 24.6383 12.525 24.2033 12.525 24.2033L14.64 19.2233H20.79C22.56 19.2233 24 17.7833 24 16.0133V5.57328C24 3.80328 22.56 2.36328 20.79 2.36328ZM7.545 11.5883C7.545 13.4933 5.565 13.5533 5.565 13.5533C4.8 13.5533 4.365 13.0433 4.365 13.0433V13.3883H2.925V7.46328C3.015 7.47828 4.365 7.46328 4.365 7.46328V9.72828C4.71 9.15828 5.685 9.15828 5.685 9.15828C7.815 9.35328 7.545 11.5883 7.545 11.5883ZM10.065 9.33828V13.3883H8.655V9.36828C8.655 8.82828 7.98 8.66328 7.98 8.66328V7.25328C10.23 7.34328 10.065 9.32328 10.065 9.32328V9.33828ZM13.395 13.5533C12.09 13.5533 11.04 12.5783 11.04 11.3783C11.04 10.1783 12.09 9.20328 13.395 9.20328C14.7 9.20328 15.75 10.1783 15.75 11.3783C15.75 12.5783 14.7 13.5533 13.395 13.5533ZM21.105 13.5533C21.105 13.5533 21.12 15.6083 19.035 15.6083H18.405V14.2733H18.795C18.795 14.2733 19.68 14.3483 19.665 12.9983C19.665 12.9983 19.5 13.5533 18.255 13.5533C18.255 13.5533 16.5 13.4333 16.5 11.7233V11.0783C16.5 11.0783 16.545 9.30828 18.465 9.17328C18.465 9.17328 19.23 9.09828 19.695 9.71328V9.27828H21.12V13.5533H21.105Z" fill="#20BF62"/>
<path d="M18.87 10.5078C18.39 10.5078 18 10.8978 18 11.3778C18 11.8578 18.39 12.2478 18.87 12.2478C19.35 12.2478 19.74 11.8578 19.74 11.3778C19.74 10.8978 19.35 10.5078 18.87 10.5078Z" fill="#20BF62"/>
</g>
<defs>
<clipPath id="clip0_426_4596">
<rect width="24" height="22.5" fill="white" transform="translate(0 1.5)"/>
</clipPath>
</defs>
</svg>
