<svg width="219" height="48" viewBox="0 0 219 48" fill="none" xmlns="http://www.w3.org/2000/svg">
<g clip-path="url(#clip0_1031_7819)">
<path d="M113.879 21.9071H109.601V18.8916H113.879V17.3857H108V23.4169H113.879V21.9071Z" fill="#333333"/>
<path d="M118.285 17.084H116.684V27.0287C116.213 26.7738 115.671 26.6287 115.092 26.6287H114.683C112.911 26.6287 111.477 27.9777 111.477 29.6443C111.477 31.3109 112.911 32.6599 114.683 32.6599H115.092C116.864 32.6599 118.298 31.3109 118.298 29.6443C118.298 29.5659 118.298 29.4875 118.29 29.409V21.1309H120.428V19.6251H118.29V17.084H118.285ZM115.079 31.1541H114.679C113.795 31.1541 113.078 30.4796 113.078 29.6482C113.078 28.8169 113.795 28.1424 114.679 28.1424H115.079C115.963 28.1424 116.68 28.8169 116.68 29.6482C116.68 30.4796 115.963 31.1541 115.079 31.1541Z" fill="#333333"/>
<path d="M148.741 28.8914V17.084H147.136V25.1229H137.522V26.6327H147.136V28.8914H148.741Z" fill="#333333"/>
<path d="M141.929 23.4171H142.329C144.101 23.4171 145.535 22.0681 145.535 20.4015C145.535 18.931 144.414 17.7036 142.929 17.4408V17.0879H141.328V17.4408C139.844 17.7036 138.723 18.931 138.723 20.4015C138.723 22.0681 140.157 23.4171 141.929 23.4171ZM141.929 18.8917H142.329C143.213 18.8917 143.93 19.5662 143.93 20.3976C143.93 21.2289 143.213 21.9034 142.329 21.9034H141.929C141.045 21.9034 140.328 21.2289 140.328 20.3976C140.328 19.5662 141.045 18.8917 141.929 18.8917Z" fill="#333333"/>
<path d="M128.204 26.6328H126.603V32.664H134.341V31.1542H128.204V26.6328Z" fill="#333333"/>
<path d="M133.936 17.084H132.335V26.6327H133.936V17.084Z" fill="#333333"/>
<path d="M128.988 23.4169L130.376 22.6601L127.141 17.3857H126.065L122.826 22.6601L124.214 23.4169L126.603 19.5268L128.988 23.4169Z" fill="#333333"/>
<path d="M162.1 21.1544H164.505V28.1385H161.191V26.6327H159.59V32.6638H166.106V17.084H164.505V19.6486H162.1V17.3859H160.499V18.8918H157.559V17.3859H155.958V23.4171H162.104V21.1544H162.1ZM164.501 31.1541H161.187V29.6482H164.501V31.1541ZM160.495 21.9073H157.555V20.4015H160.495V21.9073Z" fill="#333333"/>
<path d="M173.498 26.6322H172.668V28.138H177.742V28.8909H172.668V32.6594H179.347V31.1536H174.273V30.4007H179.347V26.6322H178.534V25.7773H181.886V24.2715H170.133V25.7773H173.502V26.6322H173.498ZM175.12 25.7773H176.879V26.6322H175.12V25.7773Z" fill="#333333"/>
<path d="M179.348 21.9071H174.274V21.1542H179.348V17.3857H172.668V18.8916H177.747V19.6484H172.668V23.4169H179.348V21.9071Z" fill="#333333"/>
<path d="M190.154 28.138H191.755V25.7773H196.846V24.2715H185.093V25.7773H190.154V28.138Z" fill="#333333"/>
<path d="M194.44 17.3857H187.494V23.4169H194.44V17.3857ZM192.839 21.9071H189.099V18.8916H192.839V21.9071Z" fill="#333333"/>
<path d="M194.44 31.1542H189.099V26.6328H187.494V32.664H194.44V31.1542Z" fill="#333333"/>
<path d="M206.564 28.8914H208.165V17.084H206.564V19.6486H205.493V21.1544H206.564V28.8914Z" fill="#333333"/>
<path d="M210.996 17.084H209.395V28.8914H210.996V17.084Z" fill="#333333"/>
<path d="M199.264 23.4208L200.773 23.9384L202.074 20.5739L203.374 23.9384L204.88 23.4208L203.128 18.8916H205.146V17.3857H199.001V18.8916H201.019L199.264 23.4208Z" fill="#333333"/>
</g>
<g clip-path="url(#clip1_1031_7819)">
<path d="M2.23323 26.9181V22.474H9.07844V18.1813C7.06392 17.3196 5.65323 15.3509 5.65323 13.0322C5.65323 9.70041 8.32365 7.17285 11.4417 7.17285C14.5598 7.17285 17.2823 9.70041 17.2823 13.0322C17.2823 15.3561 15.8716 17.3249 13.8571 18.1813V22.474H20.4524V26.9181H2.22803H2.23323ZM5.20036 47.3735V40.6055L12.9513 35.1013V33.5869H5.20036V29.195H17.7872V37.4774L10.0362 42.9816H17.7872V47.3735H5.20036ZM11.4417 14.4944C12.3475 14.4944 12.9045 13.7894 12.9045 13.0322C12.9045 12.2227 12.3527 11.5647 11.4417 11.5647C10.6869 11.5647 10.031 12.2227 10.031 13.0322C10.031 13.7894 10.6869 14.4944 11.4417 14.4944Z" fill="#20BF62"/>
<path d="M22.9248 26.9181V11.4133H27.5056V15.3039H30.4259V11.4133H35.0067V26.9181H22.9248ZM27.5056 22.5784H30.4259V19.748H27.5056V22.5784ZM39.7385 26.9181V8.0293H44.5692V15.3039H49.15V19.748H44.5692V26.9181H39.7385Z" fill="#20BF62"/>
<path d="M50.5609 26.918V22.4739H57.4061V18.6878H53.9288V11.9094L60.7272 7.01093V5.95082H53.9288V1.55371H65.5579V9.38182L58.7647 14.2803V14.2907H65.5579V18.6826H62.1847V22.4687H68.78V26.9128H50.5557L50.5609 26.918Z" fill="#20BF62"/>
<path d="M75.8333 22.4736H71.0859V26.9961H75.8333V22.4736Z" fill="#333333"/>
<path d="M10.0361 42.9658L5.2002 47.3734H16.8292V42.9815L10.0361 42.9658Z" fill="url(#paint0_linear_1031_7819)"/>
<path d="M65.5632 14.2907V18.6878H62.1901V22.4739H68.7854V26.918H50.561V22.4739H57.4114V18.6878H53.9342L58.7701 14.2803L65.5632 14.2907Z" fill="url(#paint1_linear_1031_7819)"/>
</g>
<defs>
<linearGradient id="paint0_linear_1031_7819" x1="9.20321" y1="43.3575" x2="15.0364" y2="49.172" gradientUnits="userSpaceOnUse">
<stop stop-opacity="0.3"/>
<stop offset="0.5" stop-opacity="0"/>
</linearGradient>
<linearGradient id="paint1_linear_1031_7819" x1="55.043" y1="17.5755" x2="66.6101" y2="29.1056" gradientUnits="userSpaceOnUse">
<stop stop-opacity="0.3"/>
<stop offset="0.5" stop-opacity="0"/>
</linearGradient>
<clipPath id="clip0_1031_7819">
<rect width="103" height="15.5798" fill="white" transform="translate(108 17.084)"/>
</clipPath>
<clipPath id="clip1_1031_7819">
<rect width="76" height="47" fill="white" transform="translate(0 0.310547)"/>
</clipPath>
</defs>
</svg>
