<svg width="219" height="48" viewBox="0 0 219 48" fill="none" xmlns="http://www.w3.org/2000/svg">
<g clip-path="url(#clip0_1831_16371)">
<path d="M113.879 21.9081H109.601V18.8925H113.879V17.3867H108V23.4179H113.879V21.9081Z" fill="white"/>
<path d="M118.285 17.084H116.684V27.0287C116.213 26.7738 115.671 26.6287 115.091 26.6287H114.683C112.911 26.6287 111.477 27.9777 111.477 29.6443C111.477 31.3109 112.911 32.6599 114.683 32.6599H115.091C116.863 32.6599 118.297 31.3109 118.297 29.6443C118.297 29.5659 118.297 29.4875 118.289 29.409V21.1309H120.428V19.6251H118.289V17.084H118.285ZM115.079 31.1541H114.679C113.795 31.1541 113.078 30.4796 113.078 29.6482C113.078 28.8169 113.795 28.1424 114.679 28.1424H115.079C115.963 28.1424 116.68 28.8169 116.68 29.6482C116.68 30.4796 115.963 31.1541 115.079 31.1541Z" fill="white"/>
<path d="M148.741 28.8914V17.084H147.136V25.1229H137.521V26.6327H147.136V28.8914H148.741Z" fill="white"/>
<path d="M141.929 23.4171H142.329C144.101 23.4171 145.535 22.0681 145.535 20.4015C145.535 18.931 144.414 17.7036 142.929 17.4408V17.0879H141.328V17.4408C139.844 17.7036 138.723 18.931 138.723 20.4015C138.723 22.0681 140.157 23.4171 141.929 23.4171ZM141.929 18.8917H142.329C143.213 18.8917 143.93 19.5662 143.93 20.3976C143.93 21.2289 143.213 21.9034 142.329 21.9034H141.929C141.045 21.9034 140.328 21.2289 140.328 20.3976C140.328 19.5662 141.045 18.8917 141.929 18.8917Z" fill="white"/>
<path d="M128.204 26.6328H126.604V32.664H134.342V31.1542H128.204V26.6328Z" fill="white"/>
<path d="M133.937 17.084H132.336V26.6327H133.937V17.084Z" fill="white"/>
<path d="M128.988 23.4179L130.377 22.661L127.141 17.3867H126.066L122.826 22.661L124.215 23.4179L126.603 19.5278L128.988 23.4179Z" fill="white"/>
<path d="M162.1 21.1544H164.506V28.1385H161.191V26.6327H159.59V32.6638H166.107V17.084H164.506V19.6486H162.1V17.3859H160.499V18.8918H157.56V17.3859H155.959V23.4171H162.104V21.1544H162.1ZM164.502 31.1541H161.187V29.6482H164.502V31.1541ZM160.495 21.9073H157.556V20.4015H160.495V21.9073Z" fill="white"/>
<path d="M173.497 26.6322H172.668V28.138H177.742V28.8909H172.668V32.6594H179.347V31.1536H174.273V30.4007H179.347V26.6322H178.534V25.7773H181.886V24.2715H170.133V25.7773H173.502V26.6322H173.497ZM175.119 25.7773H176.879V26.6322H175.119V25.7773Z" fill="white"/>
<path d="M179.347 21.9081H174.273V21.1552H179.347V17.3867H172.668V18.8925H177.746V19.6494H172.668V23.4179H179.347V21.9081Z" fill="white"/>
<path d="M190.153 28.138H191.754V25.7773H196.845V24.2715H185.092V25.7773H190.153V28.138Z" fill="white"/>
<path d="M194.44 17.3867H187.494V23.4179H194.44V17.3867ZM192.839 21.9081H189.099V18.8925H192.839V21.9081Z" fill="white"/>
<path d="M194.44 31.1542H189.099V26.6328H187.494V32.664H194.44V31.1542Z" fill="white"/>
<path d="M206.564 28.8914H208.165V17.084H206.564V19.6486H205.492V21.1544H206.564V28.8914Z" fill="white"/>
<path d="M210.996 17.084H209.395V28.8914H210.996V17.084Z" fill="white"/>
<path d="M199.265 23.4218L200.774 23.9394L202.075 20.5748L203.375 23.9394L204.881 23.4218L203.129 18.8925H205.147V17.3867H199.002V18.8925H201.02L199.265 23.4218Z" fill="white"/>
</g>
<g clip-path="url(#clip1_1831_16371)">
<path d="M2.23372 26.9171V22.473H9.07893V18.1803C7.06441 17.3187 5.65372 15.3499 5.65372 13.0312C5.65372 9.69943 8.32413 7.17188 11.4422 7.17188C14.5603 7.17188 17.2828 9.69943 17.2828 13.0312C17.2828 15.3551 15.8721 17.3239 13.8576 18.1803V22.473H20.4529V26.9171H2.22852H2.23372ZM5.20085 47.3725V40.6045L12.9518 35.1003V33.5859H5.20085V29.194H17.7877V37.4764L10.0367 42.9807H17.7877V47.3725H5.20085ZM11.4422 14.4934C12.348 14.4934 12.905 13.7884 12.905 13.0312C12.905 12.2218 12.3532 11.5638 11.4422 11.5638C10.6874 11.5638 10.0315 12.2218 10.0315 13.0312C10.0315 13.7884 10.6874 14.4934 11.4422 14.4934Z" fill="#20BF62"/>
<path d="M22.9258 26.9161V11.4113H27.5066V15.3019H30.4269V11.4113H35.0077V26.9161H22.9258ZM27.5066 22.5765H30.4269V19.746H27.5066V22.5765ZM39.7395 26.9161V8.02734H44.5702V15.3019H49.151V19.746H44.5702V26.9161H39.7395Z" fill="#20BF62"/>
<path d="M50.5619 26.9171V22.473H57.4071V18.6868H53.9298V11.9084L60.7281 7.00996V5.94985H53.9298V1.55273H65.5588V9.38085L58.7657 14.2793V14.2897H65.5588V18.6816H62.1857V22.4677H68.781V26.9118H50.5566L50.5619 26.9171Z" fill="#20BF62"/>
<path d="M75.8333 22.4746H71.0859V26.9971H75.8333V22.4746Z" fill="white"/>
<path d="M10.0371 42.9648L5.20117 47.3724H16.8302V42.9805L10.0371 42.9648Z" fill="url(#paint0_linear_1831_16371)"/>
<path d="M65.5627 14.2897V18.6869H62.1896V22.473H68.7849V26.9171H50.5605V22.473H57.411V18.6869H53.9337L58.7696 14.2793L65.5627 14.2897Z" fill="url(#paint1_linear_1831_16371)"/>
</g>
<defs>
<linearGradient id="paint0_linear_1831_16371" x1="9.20418" y1="43.3565" x2="15.0374" y2="49.171" gradientUnits="userSpaceOnUse">
<stop stop-opacity="0.3"/>
<stop offset="0.5" stop-opacity="0"/>
</linearGradient>
<linearGradient id="paint1_linear_1831_16371" x1="55.0425" y1="17.5745" x2="66.6096" y2="29.1046" gradientUnits="userSpaceOnUse">
<stop stop-opacity="0.3"/>
<stop offset="0.5" stop-opacity="0"/>
</linearGradient>
<clipPath id="clip0_1831_16371">
<rect width="103" height="15.5798" fill="white" transform="translate(108 17.084)"/>
</clipPath>
<clipPath id="clip1_1831_16371">
<rect width="76" height="47" fill="white" transform="translate(0 0.310547)"/>
</clipPath>
</defs>
</svg>
