<svg width="16" height="16" viewBox="0 0 16 16" fill="none" xmlns="http://www.w3.org/2000/svg">
<g clip-path="url(#clip0_2814_30434)">
<g clip-path="url(#clip1_2814_30434)">
<path d="M15.0013 7.63967C15.0013 4.70634 12.0146 2.33301 8.33464 2.33301C4.65464 2.33301 1.66797 4.70634 1.66797 7.63967C1.66797 8.34634 1.84797 9.01967 2.1613 9.63967H2.12797C2.97464 11.3397 4.89464 12.613 7.21463 12.9197V14.713L8.95464 12.973C11.488 12.7797 13.6146 11.4597 14.5213 9.63967H14.508C14.8213 9.01967 15.0013 8.34634 15.0013 7.63967Z" stroke="currentColor" stroke-linecap="round" stroke-linejoin="round"/>
<path d="M5 8.33301C5.55228 8.33301 6 7.88529 6 7.33301C6 6.78072 5.55228 6.33301 5 6.33301C4.44772 6.33301 4 6.78072 4 7.33301C4 7.88529 4.44772 8.33301 5 8.33301Z" fill="currentColor"/>
<path d="M12 8.33301C12.5523 8.33301 13 7.88529 13 7.33301C13 6.78072 12.5523 6.33301 12 6.33301C11.4477 6.33301 11 6.78072 11 7.33301C11 7.88529 11.4477 8.33301 12 8.33301Z" fill="currentColor"/>
<path d="M8.5 8.33301C9.05228 8.33301 9.5 7.88529 9.5 7.33301C9.5 6.78072 9.05228 6.33301 8.5 6.33301C7.94772 6.33301 7.5 6.78072 7.5 7.33301C7.5 7.88529 7.94772 8.33301 8.5 8.33301Z" fill="currentColor"/>
</g>
</g>
<defs>
<clipPath id="clip0_2814_30434">
<rect width="16" height="16" fill="white"/>
</clipPath>
<clipPath id="clip1_2814_30434">
<rect width="16.6667" height="14.6667" fill="white" transform="translate(0 1.33301)"/>
</clipPath>
</defs>
</svg>
