<svg width="24" height="22" viewBox="0 0 24 22" fill="none" xmlns="http://www.w3.org/2000/svg">
<path d="M22.5 9.46C22.5 5.06 18.02 1.5 12.5 1.5C6.98 1.5 2.5 5.06 2.5 9.46C2.5 10.52 2.77 11.53 3.24 12.46H3.19C4.46 15.01 7.34 16.92 10.82 17.38V20.07L13.43 17.46C17.23 17.17 20.42 15.19 21.78 12.46H21.76C22.23 11.53 22.5 10.52 22.5 9.46Z" stroke="#BEBEBE" stroke-width="2" stroke-linecap="round" stroke-linejoin="round"/>
<path d="M8.57969 10.6101C9.21482 10.6101 9.72969 10.0952 9.72969 9.46006C9.72969 8.82493 9.21482 8.31006 8.57969 8.31006C7.94456 8.31006 7.42969 8.82493 7.42969 9.46006C7.42969 10.0952 7.94456 10.6101 8.57969 10.6101Z" fill="#BEBEBE"/>
<path d="M12.9508 10.6101C13.5859 10.6101 14.1008 10.0952 14.1008 9.46006C14.1008 8.82493 13.5859 8.31006 12.9508 8.31006C12.3157 8.31006 11.8008 8.82493 11.8008 9.46006C11.8008 10.0952 12.3157 10.6101 12.9508 10.6101Z" fill="#BEBEBE"/>
<path d="M17.3199 10.6101C17.955 10.6101 18.4699 10.0952 18.4699 9.46006C18.4699 8.82493 17.955 8.31006 17.3199 8.31006C16.6848 8.31006 16.1699 8.82493 16.1699 9.46006C16.1699 10.0952 16.6848 10.6101 17.3199 10.6101Z" fill="#BEBEBE"/>
</svg>
