<svg width="24" height="24" viewBox="0 0 24 24" fill="none" xmlns="http://www.w3.org/2000/svg">
<g clip-path="url(#clip0_426_4594)">
<path d="M23.505 5.80535C23.235 4.69535 22.41 3.82535 21.375 3.52535C19.5 2.98535 12 2.98535 12 2.98535C12 2.98535 4.5 2.98535 2.625 3.52535C1.59 3.82535 0.78 4.69535 0.495 5.80535C0 7.81535 0 12.0004 0 12.0004C0 12.0004 0 16.1854 0.495 18.1954C0.765 19.3054 1.59 20.1754 2.625 20.4754C4.5 21.0154 12 21.0154 12 21.0154C12 21.0154 19.5 21.0154 21.375 20.4754C22.41 20.1754 23.22 19.3054 23.505 18.1954C24 16.1854 24 12.0004 24 12.0004C24 12.0004 24 7.81535 23.505 5.80535ZM9.72 15.7504V8.25035L15.72 12.0004L9.72 15.7504Z" fill="#FF0000"/>
</g>
<defs>
<clipPath id="clip0_426_4594">
<rect width="24" height="18" fill="white" transform="translate(0 3)"/>
</clipPath>
</defs>
</svg>
